<svg width="1280" height="720" viewBox="0 0 1280 720" fill="none" xmlns="http://www.w3.org/2000/svg">
  <rect width="1280" height="720" fill="#050708"/>
  <g opacity="0.28">
    <path d="M80 80H1200V640H80V80Z" stroke="#67E8F9" stroke-width="2"/>
    <path d="M80 220H1200M80 360H1200M80 500H1200M360 80V640M640 80V640M920 80V640" stroke="#67E8F9" stroke-opacity="0.35"/>
  </g>
  <circle cx="640" cy="360" r="54" fill="#67E8F9" fill-opacity="0.08" stroke="#67E8F9" stroke-opacity="0.7" stroke-width="3"/>
  <text x="618" y="367" fill="#DFFBFF" font-family="Consolas, monospace" font-size="18">H-0</text>
  <g stroke="#34D399" stroke-opacity="0.42" stroke-width="3">
    <path d="M640 360L360 220"/>
    <path d="M640 360L920 220"/>
    <path d="M640 360L360 500"/>
    <path d="M640 360L920 500"/>
    <path d="M640 360L220 360"/>
    <path d="M640 360L1060 360"/>
  </g>
  <g fill="#0A0F10" stroke="#DFFBFF" stroke-opacity="0.4" stroke-width="2">
    <circle cx="360" cy="220" r="24"/>
    <circle cx="920" cy="220" r="24"/>
    <circle cx="360" cy="500" r="24"/>
    <circle cx="920" cy="500" r="24"/>
    <circle cx="220" cy="360" r="24"/>
    <circle cx="1060" cy="360" r="24"/>
  </g>
  <g fill="#67E8F9" fill-opacity="0.75" font-family="Consolas, monospace" font-size="14">
    <text x="332" y="265">MAIL</text>
    <text x="895" y="265">AUTH</text>
    <text x="332" y="545">CAM</text>
    <text x="895" y="545">DOOR</text>
    <text x="184" y="405">EXT-A</text>
    <text x="1022" y="405">EXT-B</text>
  </g>
  <path d="M424 212C498 190 604 204 670 286C748 383 720 510 644 584" stroke="#67E8F9" stroke-opacity="0.22" stroke-width="14"/>
  <path d="M856 512C786 536 684 526 612 450C526 358 546 226 618 144" stroke="#34D399" stroke-opacity="0.18" stroke-width="14"/>
  <g opacity="0.75">
    <text x="90" y="118" fill="#DFFBFF" font-family="Consolas, monospace" font-size="16">NETOPS SNAPSHOT // HELIX LABS</text>
    <text x="90" y="626" fill="#67E8F9" font-family="Consolas, monospace" font-size="16">EXTERNAL LINKS DROPPED IN SPIRAL PATTERN</text>
  </g>
</svg>
