<svg width="1280" height="720" viewBox="0 0 1280 720" fill="none" xmlns="http://www.w3.org/2000/svg">
  <rect width="1280" height="720" fill="#050708"/>
  <g opacity="0.55">
    <path d="M0 80H1280M0 160H1280M0 240H1280M0 320H1280M0 400H1280M0 480H1280M0 560H1280M0 640H1280" stroke="#67E8F9" stroke-opacity="0.13"/>
    <path d="M80 0V720M160 0V720M240 0V720M320 0V720M400 0V720M480 0V720M560 0V720M640 0V720M720 0V720M800 0V720M880 0V720M960 0V720M1040 0V720M1120 0V720M1200 0V720" stroke="#34D399" stroke-opacity="0.09"/>
  </g>
  <rect x="78" y="70" width="1124" height="580" stroke="#67E8F9" stroke-opacity="0.35" stroke-width="2"/>
  <path d="M120 594H1160" stroke="#67E8F9" stroke-opacity="0.18" stroke-width="18"/>
  <path d="M250 594V310L420 240L590 310V594" stroke="#E5E7EB" stroke-opacity="0.22" stroke-width="7"/>
  <path d="M690 594V260L840 210L990 260V594" stroke="#E5E7EB" stroke-opacity="0.18" stroke-width="7"/>
  <path d="M222 198H1058" stroke="#34D399" stroke-opacity="0.28" stroke-width="3"/>
  <path d="M640 94V626" stroke="#67E8F9" stroke-opacity="0.12" stroke-width="2"/>
  <rect x="240" y="318" width="340" height="276" fill="#67E8F9" fill-opacity="0.035" stroke="#67E8F9" stroke-opacity="0.16"/>
  <rect x="700" y="274" width="280" height="320" fill="#34D399" fill-opacity="0.025" stroke="#34D399" stroke-opacity="0.14"/>
  <g opacity="0.8">
    <path d="M90 116H180V140H90V116Z" fill="#67E8F9" fill-opacity="0.12"/>
    <text x="104" y="133" fill="#DFFBFF" font-family="Consolas, monospace" font-size="14">CAM 03</text>
    <text x="948" y="133" fill="#DFFBFF" font-family="Consolas, monospace" font-size="14">23:16:40 UTC</text>
  </g>
  <g opacity="0.72">
    <path d="M0 346H1280" stroke="#E5E7EB" stroke-opacity="0.25" stroke-width="6"/>
    <path d="M0 358H1280" stroke="#67E8F9" stroke-opacity="0.25" stroke-width="2"/>
    <path d="M0 372H1280" stroke="#34D399" stroke-opacity="0.18" stroke-width="4"/>
    <path d="M0 388H1280" stroke="#E5E7EB" stroke-opacity="0.18" stroke-width="2"/>
  </g>
  <text x="92" y="632" fill="#67E8F9" fill-opacity="0.65" font-family="Consolas, monospace" font-size="16">SUBLEVEL C // SIGNAL LOSS IMMINENT</text>
</svg>
